<svg width="89" height="86" viewBox="0 0 89 86" fill="none" xmlns="http://www.w3.org/2000/svg">
<g clip-path="url(#clip0_2693_103)">
<path d="M73.4394 0H15.8034C7.07544 0 0 6.97406 0 15.577V70.1883C0 78.7913 7.07544 85.7653 15.8034 85.7653H73.4394C82.1674 85.7653 89.2429 78.7913 89.2429 70.1883V15.577C89.2429 6.97406 82.1674 0 73.4394 0Z" fill="#00005B"/>
<path d="M35.85 51.3133H22.0196L19.2054 59.9455C19.1687 60.1033 19.0766 60.2433 18.9453 60.3407C18.814 60.438 18.652 60.4865 18.488 60.4776H11.4909C11.0921 60.4776 10.9528 60.2596 11.073 59.827L23.047 25.9782C23.1654 25.6246 23.2856 25.2779 23.4058 24.8264C23.5626 24.0387 23.6425 23.2381 23.6443 22.4354C23.6309 22.3396 23.6566 22.2424 23.7156 22.1652C23.7747 22.088 23.8624 22.037 23.9595 22.0234C23.9942 22.0182 24.0294 22.0182 24.064 22.0234H33.5827C33.8613 22.0234 34.0215 22.1213 34.0615 22.3186L47.6447 59.8871C47.7608 60.2808 47.6412 60.4776 47.2859 60.4776H39.5018C39.368 60.4918 39.2336 60.4577 39.1234 60.3816C39.0132 60.3056 38.9348 60.1927 38.9027 60.0639L35.85 51.3133ZM24.1824 44.0355H33.6419C33.4015 43.2493 33.1218 42.3642 32.8025 41.3801C32.4832 40.396 32.1442 39.3438 31.7855 38.2235L30.7076 34.8592C30.3488 33.7389 30.0197 32.657 29.7202 31.6134C29.4206 30.5697 29.149 29.616 28.9052 28.752H28.8442C28.5081 30.3458 28.0885 31.9213 27.5869 33.4723C27.0285 35.2437 26.4596 37.0534 25.8803 38.9015C25.301 40.7496 24.7327 42.4609 24.1755 44.0355H24.1824Z" fill="#9999FF"/>
<path d="M69.684 47.9538H57.8894C58.0336 49.104 58.421 50.2115 59.0265 51.2048C59.6962 52.1882 60.6429 52.9573 61.7501 53.4174C63.2516 54.0578 64.8755 54.3716 66.5112 54.3374C67.8083 54.313 69.1005 54.1728 70.3719 53.9186C71.5094 53.7657 72.6239 53.4776 73.6911 53.0603C73.8907 52.9047 73.9906 53.0031 73.9906 53.3556V58.9616C74.0087 59.1015 73.9843 59.2435 73.9204 59.3697C73.8565 59.4959 73.7561 59.6006 73.6318 59.6705C72.4474 60.1871 71.2009 60.5528 69.9226 60.7587C68.1863 61.081 66.4214 61.2294 64.6548 61.2016C61.8198 61.2016 59.445 60.769 57.5306 59.9039C55.7202 59.1176 54.1209 57.9257 52.8601 56.4229C51.6843 55.0069 50.8091 53.3726 50.2863 51.6168C49.7696 49.882 49.5075 48.0832 49.5079 46.2751C49.5028 44.3016 49.8161 42.3397 50.4361 40.4631C51.0343 38.6325 51.9798 36.9305 53.2223 35.4476C54.4474 33.9818 55.9794 32.7943 57.7135 31.9666C59.4688 31.1204 61.5446 30.8166 63.9391 30.8166C65.9253 30.7682 67.898 31.1515 69.7171 31.9391C71.2462 32.5813 72.5921 33.5832 73.6371 34.8571C74.6185 36.1045 75.3684 37.5131 75.8522 39.0179C76.3239 40.4677 76.5665 41.9805 76.5714 43.503C76.5714 44.3681 76.5412 45.1548 76.4808 45.8632C76.4216 46.5704 76.3711 47.0819 76.3328 47.3977C76.3167 47.5277 76.2529 47.6475 76.1535 47.7344C76.0541 47.8213 75.9259 47.8694 75.793 47.8697C75.5538 47.8697 75.1446 47.8989 74.5653 47.9573C73.9871 48.0174 73.2679 48.0551 72.4111 48.0757C71.5543 48.0963 70.6418 47.9538 69.684 47.9538ZM57.8894 42.5778H65.7258C66.6836 42.5778 67.3917 42.5681 67.8503 42.5487C68.1581 42.5182 68.4553 42.4215 68.721 42.2654V41.9101C68.7083 41.449 68.6274 40.9922 68.4807 40.5541C68.1579 39.5471 67.5085 38.6724 66.6323 38.0646C65.756 37.4567 64.7015 37.1494 63.6308 37.1898C62.6234 37.1303 61.6202 37.3608 60.7433 37.8533C59.8664 38.3458 59.1538 39.079 58.6922 39.9637C58.2844 40.7871 58.0133 41.6697 57.8894 42.5778Z" fill="#9999FF"/>
</g>
<defs>
<clipPath id="clip0_2693_103">
<rect width="89" height="86" fill="white"/>
</clipPath>
</defs>
</svg>
