<svg width="88" height="86" viewBox="0 0 88 86" fill="none" xmlns="http://www.w3.org/2000/svg">
<g clip-path="url(#clip0_2693_99)">
<path d="M72.6137 0H15.6259C6.99595 0 0 6.97422 0 15.5774V70.1884C0 78.7916 6.99595 85.7658 15.6259 85.7658H72.6137C81.2437 85.7658 88.2396 78.7916 88.2396 70.1884V15.5774C88.2396 6.97422 81.2437 0 72.6137 0Z" fill="#330000"/>
<path d="M42.7663 51.4719H29.0917L26.3106 60.087C26.2739 60.2448 26.1824 60.3847 26.0524 60.4819C25.9223 60.5791 25.7621 60.6275 25.5998 60.6184H18.6745C18.2788 60.6184 18.1408 60.4017 18.2604 59.9683L30.0993 25.9723C30.2143 25.618 30.3328 25.2166 30.4547 24.7683C30.6084 23.9805 30.6876 23.1801 30.6911 22.3776C30.684 22.3301 30.6865 22.2818 30.6983 22.2352C30.7101 22.1887 30.7311 22.145 30.7599 22.1066C30.7888 22.0682 30.8251 22.0359 30.8665 22.0116C30.908 21.9873 30.9539 21.9714 31.0016 21.9648C31.0359 21.9596 31.0708 21.9596 31.1051 21.9648H40.5166C40.7926 21.9648 40.9496 22.0629 40.991 22.2589L54.4275 60.0268C54.5466 60.4189 54.4275 60.6167 54.0721 60.6167H46.3774C46.2452 60.6314 46.1123 60.5975 46.0034 60.5216C45.8945 60.4456 45.8171 60.3327 45.7856 60.2039L42.7663 51.4719ZM31.2242 44.0315H40.5752C40.3394 43.2437 40.0634 42.3586 39.7471 41.3759C39.4308 40.3933 39.0955 39.3407 38.7412 38.2181L37.675 34.8557C37.3196 33.7343 36.9941 32.6519 36.6985 31.6085C36.4029 30.565 36.1343 29.6133 35.8928 28.7534H35.8341C35.5007 30.3467 35.0855 31.9219 34.5902 33.4729C34.0381 35.2444 33.4757 37.0543 32.9029 38.9027C32.3301 40.751 31.7705 42.4606 31.2242 44.0315Z" fill="#FF9A00"/>
<path d="M62.4081 28.2207C61.8044 28.2447 61.2024 28.1414 60.6414 27.9177C60.0804 27.6939 59.5731 27.3547 59.1525 26.9222C58.7331 26.4708 58.4075 25.9412 58.1943 25.3638C57.9811 24.7864 57.8846 24.1727 57.9103 23.558C57.8898 22.9506 57.9978 22.3457 58.2273 21.7827C58.4568 21.2197 58.8026 20.7111 59.2422 20.2901C59.6777 19.8735 60.1915 19.5468 60.754 19.329C61.3166 19.1112 61.9169 19.0064 62.5203 19.0208C63.9408 19.0208 65.0553 19.4439 65.8639 20.2901C66.6842 21.1773 67.1184 22.3524 67.0716 23.558C67.0965 24.1752 66.9966 24.7911 66.7779 25.3691C66.5591 25.947 66.226 26.4752 65.7983 26.9222C65.3533 27.3595 64.8225 27.7006 64.2391 27.924C63.6558 28.1475 63.0324 28.2485 62.4081 28.2207ZM58.3244 60.0256V31.8188C58.3244 31.4645 58.4814 31.2874 58.7971 31.2874H66.0761C66.3901 31.2874 66.5488 31.4593 66.5488 31.8188V60.0256C66.5488 60.4177 66.3918 60.6155 66.0761 60.6155H58.8575C58.5021 60.6172 58.3244 60.4194 58.3244 60.0256Z" fill="#FF9A00"/>
</g>
<defs>
<clipPath id="clip0_2693_99">
<rect width="88" height="86" fill="white"/>
</clipPath>
</defs>
</svg>
