<svg width="60" height="38" viewBox="0 0 60 38" fill="none" xmlns="http://www.w3.org/2000/svg">
<path fill-rule="evenodd" clip-rule="evenodd" d="M17.1728 0C18.9183 0 20.49 0.152229 21.9229 0.46429C23.359 0.764298 24.5722 1.27568 25.6019 1.96989C26.6194 2.66633 27.4041 3.59379 27.9845 4.75016C28.5397 5.89549 28.8174 7.33323 28.8174 9.03603C28.8174 10.8789 28.4032 12.4065 27.567 13.6372C26.7232 14.8647 25.498 15.8622 23.8542 16.6517C26.0969 17.3001 27.7517 18.4355 28.8621 20.0474C29.9716 21.6713 30.505 23.6171 30.505 25.909C30.505 27.7628 30.1454 29.3494 29.4437 30.6942C28.7267 32.0509 27.755 33.1502 26.5648 33.9978C25.3625 34.8541 23.9744 35.4804 22.4235 35.8856C20.8835 36.2885 19.2998 36.4999 17.6624 36.4999H0V0.00333783L17.175 0.00445044L17.1729 0H17.1728ZM38.6454 2.94445H53.4158V6.54928L38.6454 6.54817V2.94334V2.94445ZM41.9276 30.1499C43.0162 31.2132 44.5769 31.7475 46.6142 31.7475C48.0713 31.7475 49.3456 31.3752 50.396 30.6339C51.4463 29.8926 52.0846 29.1075 52.3283 28.2949L58.7102 28.2961C57.6806 31.4804 56.1308 33.7427 54.0038 35.1102C51.9086 36.478 49.3446 37.1722 46.3695 37.1722C44.2852 37.1722 42.4249 36.8338 40.7472 36.1735C39.0705 35.5023 37.6715 34.565 36.4911 33.3331C35.3468 32.1056 34.4451 30.646 33.8079 28.93C33.1827 27.2284 32.8613 25.3373 32.8613 23.2985C32.8613 21.3175 33.1871 19.4747 33.8309 17.7708C34.4899 16.0539 35.3927 14.5854 36.5949 13.3437C37.7961 12.103 39.2072 11.1187 40.8739 10.4003C42.5287 9.68091 44.3561 9.32064 46.3803 9.32064C48.6111 9.32064 50.5653 9.751 52.2431 10.6303C53.9088 11.4976 55.2848 12.6692 56.3603 14.13C57.438 15.5918 58.1997 17.2704 58.6741 19.1462C59.1484 21.0219 59.3103 22.9797 59.1802 25.034H40.134C40.134 27.1069 40.8292 29.091 41.9254 30.1423L41.9276 30.1499ZM50.244 16.2706C49.3894 15.3213 47.9193 14.7989 46.1508 14.7989C44.9923 14.7989 44.0349 14.9949 43.272 15.3891C42.521 15.7812 41.9069 16.2674 41.4325 16.8488C40.9701 17.4281 40.6445 18.0544 40.4641 18.7125C40.2794 19.3498 40.1647 19.94 40.1264 20.4514L51.9251 20.4502C51.7513 18.5975 51.1152 17.2299 50.2485 16.2685L50.2441 16.2706H50.244ZM16.129 14.7387C17.5499 14.7387 18.7292 14.4003 19.6538 13.7181C20.5785 13.0469 21.019 11.9344 21.019 10.4036C21.019 9.55937 20.8681 8.84977 20.5676 8.30446C20.2572 7.76025 19.8495 7.32989 19.3303 7.02988C18.8199 6.71884 18.2439 6.50645 17.563 6.39149C16.9039 6.26559 16.2088 6.20755 15.5049 6.20755H8.01152V14.7343H16.1312L16.129 14.7387ZM16.5684 30.2759C17.3575 30.2759 18.1084 30.2057 18.809 30.0415C19.526 29.8794 20.1632 29.6374 20.6933 29.2674C21.2256 28.907 21.678 28.434 21.9994 27.8077C22.3251 27.1923 22.4737 26.4061 22.4737 25.4457C22.4737 23.57 21.9403 22.2242 20.89 21.4117C19.8397 20.6102 18.4406 20.2182 16.7061 20.2182H8.0093V30.2616L16.5684 30.2605V30.2758V30.2759Z" fill="white"/>
</svg>
