<svg width="86" height="86" viewBox="0 0 86 86" fill="none" xmlns="http://www.w3.org/2000/svg">
<rect width="86" height="86" rx="14.6667" fill="white"/>
<path d="M18.903 24.5343C18.7857 21.1348 21.4268 18 24.9969 18H61.5847C65.1547 18 67.7959 21.1348 67.6786 24.5343C67.5649 27.8002 67.7116 32.0294 68.7737 35.4792C69.8394 38.9387 71.6349 41.1262 74.5767 41.4069V44.5931C71.6349 44.8738 69.8394 47.0613 68.7737 50.5208C67.7116 53.9706 67.5649 58.1998 67.6786 61.4657C67.7959 64.8652 65.1547 68 61.5847 68H24.9969C21.4268 68 18.7857 64.8652 18.903 61.4657C19.0167 58.1998 18.8688 53.9706 17.8079 50.5208C16.7421 47.0613 14.9418 44.8738 12 44.5931V41.4069C14.9418 41.1262 16.7421 38.9387 17.8079 35.4792C18.8688 32.0294 19.0167 27.8002 18.903 24.5343Z" fill="url(#paint0_linear_2755_1284)"/>
<path fill-rule="evenodd" clip-rule="evenodd" d="M53.9163 48.7727C53.9163 53.4541 50.433 56.2924 44.652 56.2924H33.75V29.6992H44.5958C49.4162 29.6992 52.5792 32.3156 52.5792 36.3328C52.5792 39.1526 50.4526 41.6784 47.7405 42.1196V42.2678C51.4316 42.6735 53.9163 45.2348 53.9163 48.7727ZM37.9678 52.9198V44.1661H43.5411C47.5328 44.1661 49.6044 45.6404 49.6044 48.5154C49.6044 51.3904 47.5902 52.9198 43.7867 52.9198H37.9678ZM37.9678 33.0718H43.5789C46.6296 33.0718 48.3614 34.4357 48.3614 36.9051C48.3614 39.5399 46.3472 41.0142 42.6941 41.0142H37.9678V33.0718Z" fill="white"/>
<defs>
<linearGradient id="paint0_linear_2755_1284" x1="21.2887" y1="19.2255" x2="76.0346" y2="62.5871" gradientUnits="userSpaceOnUse">
<stop stop-color="#9013FE"/>
<stop offset="1" stop-color="#6610F2"/>
</linearGradient>
</defs>
</svg>
