<svg width="86" height="86" viewBox="0 0 86 86" fill="none" xmlns="http://www.w3.org/2000/svg">
<rect width="86" height="86" rx="14.6667" fill="white"/>
<path d="M18.3151 30.6516C18.6885 27.3708 21.3916 24.8436 24.6904 24.6916L52.7737 24.6914C53.7805 24.7746 54.7562 25.0803 55.6304 25.5865C56.5046 26.0928 57.2555 26.7868 57.8288 27.6186C58.3454 28.3763 58.7099 29.2271 58.9021 30.1239L67.1552 26.0315C67.2076 26.0054 67.2654 25.9922 67.3239 25.993C67.3824 25.9938 67.4399 26.0086 67.4915 26.0361C67.5431 26.0636 67.5874 26.1031 67.6207 26.1512C67.654 26.1993 67.6753 26.2546 67.6828 26.3126V30.9533L67.683 30.9694C67.683 31.1217 67.6377 31.2706 67.5528 31.3971C67.4679 31.5236 67.3474 31.622 67.2065 31.6797C59.611 35.4466 52.0171 39.2167 44.4249 42.9901L67.1551 54.2353C67.3002 54.2857 67.4275 54.3774 67.5213 54.4991C67.615 54.6209 67.6712 54.7673 67.6828 54.9206V59.5708C67.6828 59.6412 67.6632 59.7103 67.6262 59.7703C67.5893 59.8302 67.5364 59.8788 67.4735 59.9105C67.4106 59.9422 67.3401 59.9558 67.2699 59.9498C67.1997 59.9439 67.1326 59.9185 67.0759 59.8767C64.3683 58.5057 61.623 57.2137 58.9358 55.8152C58.7562 56.465 58.5154 57.0963 58.2166 57.7006C57.7612 58.5382 57.1362 59.2715 56.3814 59.8539C55.6266 60.4362 54.7586 60.8547 53.833 61.0827C53.2136 61.2128 52.5804 61.2647 51.9482 61.237L25.7731 61.2375C25.1835 61.2375 24.5906 61.2375 24.0044 61.1929C20.966 60.7385 18.6212 58.2764 18.3155 55.2191V50.7225C18.3402 50.535 18.4177 50.3583 18.5391 50.2132C18.6604 50.0681 18.8206 49.9605 19.0008 49.903C23.6688 47.5965 28.3266 45.2693 33.0015 42.973C28.2922 40.6287 23.5796 38.2912 18.8635 35.9606C18.7033 35.8898 18.5669 35.7741 18.4708 35.6275C18.3748 35.481 18.3232 35.3098 18.3222 35.1345C18.3151 33.6436 18.2911 32.146 18.3151 30.6516ZM23.518 30.6825C23.2368 31.2481 23.3671 31.9025 23.3431 32.5127C28.4843 35.0524 33.5875 37.6057 38.7183 40.1282C43.7884 37.6149 48.8609 35.1014 53.9356 32.5881C53.9356 32.1323 53.9562 31.6764 53.9356 31.2172C53.8763 30.8097 53.6723 30.4372 53.3609 30.1678C53.0495 29.8984 52.6515 29.7501 52.2398 29.7501H52.222L25.0841 29.7503C24.7607 29.7395 24.4411 29.8216 24.1629 29.9868C23.8847 30.152 23.6597 30.3934 23.5144 30.6825H23.518ZM23.3431 53.4265C23.3669 54.0434 23.2332 54.7083 23.5316 55.2807C23.6814 55.5621 23.9066 55.7961 24.1821 55.9565C24.4576 56.1168 24.7723 56.1972 25.091 56.1886L52.246 56.1889L52.2596 56.1887C52.8673 56.1887 53.4288 55.8629 53.73 55.3353C54.0726 54.7356 53.9151 54.0159 53.9492 53.3578C48.8665 50.849 43.7904 48.2989 38.6975 45.8177C33.5753 48.348 28.456 50.8843 23.3397 53.4265H23.3431Z" fill="black"/>
</svg>
