<svg width="37" height="38" viewBox="0 0 37 38" fill="none" xmlns="http://www.w3.org/2000/svg">
<path d="M36.6762 18.6542C36.6762 8.35153 28.4662 0 18.3381 0C8.20998 0 0 8.35153 0 18.6542C0 27.4031 5.92079 34.7431 13.9081 36.7595V24.3546H10.1267V18.6542H13.9081V16.198C13.9081 9.84827 16.7327 6.90537 22.8603 6.90537C24.0225 6.90537 26.0271 7.13772 26.8471 7.36934V12.5368C26.414 12.4906 25.6625 12.4672 24.7287 12.4672C21.7218 12.4672 20.5595 13.626 20.5595 16.6386V18.6542H26.5495L25.5205 24.3546H20.5595V37.1722C29.64 36.0566 36.6762 28.1917 36.6762 18.6542Z" fill="white"/>
</svg>
