<svg width="86" height="86" viewBox="0 0 86 86" fill="none" xmlns="http://www.w3.org/2000/svg">
<rect width="86" height="86" rx="14.6667" fill="black"/>
<g clip-path="url(#clip0_2693_107)">
<path d="M42.9453 41.9671C42.9453 37.2628 46.7968 33.4503 51.5453 33.4503H52.7892C52.8231 33.4515 52.8604 33.4492 52.8954 33.4492C58.2235 33.4492 62.5439 37.7294 62.5439 43.0055C62.5439 48.2816 58.2235 52.5607 52.8954 52.5607C52.8604 52.5607 52.8231 52.5596 52.7881 52.5596L51.5453 52.5607C46.7968 52.5607 42.9453 48.746 42.9453 44.0428V41.9671Z" fill="#00B6FF"/>
<path d="M23.4531 62.1121C23.4531 56.8349 27.7735 52.5547 33.1016 52.5547L42.9455 52.5558V62.0136C42.9455 67.3457 38.5325 71.6662 33.149 71.6662C27.822 71.6662 23.4531 67.3882 23.4531 62.1121Z" fill="#24CB71"/>
<path d="M42.9453 14.3371V33.4474H52.7892C52.8231 33.4463 52.8604 33.4485 52.8954 33.4485C58.2235 33.4485 62.5439 29.1683 62.5439 23.8922C62.5439 18.615 58.2235 14.3359 52.8954 14.3359C52.8604 14.3359 52.8231 14.3371 52.7881 14.3371H42.9453Z" fill="#FF7237"/>
<path d="M23.4531 23.89C23.4531 29.1672 27.7735 33.4463 33.1016 33.4463H42.9455V14.3359H33.1004C27.7735 14.3359 23.4531 18.6139 23.4531 23.89Z" fill="#FF3737"/>
<path d="M23.4531 43.0033C23.4531 48.2805 27.7735 52.5596 33.1016 52.5596H42.9455V33.4492H33.1004C27.7735 33.4492 23.4531 37.7272 23.4531 43.0033Z" fill="#874FFF"/>
</g>
<defs>
<clipPath id="clip0_2693_107">
<rect width="39.0909" height="57.3333" fill="white" transform="translate(23.4531 14.3359)"/>
</clipPath>
</defs>
</svg>
