<svg width="86" height="86" viewBox="0 0 86 86" fill="none" xmlns="http://www.w3.org/2000/svg">
<rect width="86" height="86" rx="14.6667" fill="white"/>
<path fill-rule="evenodd" clip-rule="evenodd" d="M42.9984 14.0099C26.9857 14.0099 14 27.0915 14 43.2272C14 56.1375 22.3082 67.0858 33.8307 70.9511C35.2811 71.2217 35.8141 70.3159 35.8141 69.5437C35.8141 68.847 35.7852 66.5456 35.7734 64.1061C27.7051 65.8737 26.0042 60.6572 26.0042 60.6572C24.6855 57.2795 22.7845 56.3812 22.7845 56.3812C20.1535 54.5661 22.9847 54.606 22.9847 54.606C25.896 54.8109 27.4288 57.6149 27.4288 57.6149C30.017 62.0819 34.215 60.7888 35.8687 60.0435C36.1298 58.1552 36.8791 56.8654 37.7097 56.1353C31.2682 55.3987 24.4971 52.8924 24.4971 41.6958C24.4971 38.5068 25.6317 35.8991 27.4845 33.8543C27.1827 33.1167 26.1894 30.1466 27.7639 26.1229C27.7639 26.1229 30.1989 25.3367 35.7413 29.1178C38.0533 28.4718 40.5333 28.1461 42.9963 28.1353C45.4612 28.1461 47.9456 28.4707 50.2608 29.1178C55.7957 25.3389 58.2286 26.1229 58.2286 26.1229C59.8053 30.1477 58.8163 33.1199 58.5144 33.8544C60.3737 35.8991 61.4987 38.5068 61.4987 41.6958C61.4987 52.9182 54.7125 55.3856 48.2571 56.1093C49.2975 57.0152 50.2266 58.7936 50.2266 61.5178C50.2266 65.425 50.1934 68.5741 50.1934 69.535C50.1934 70.3126 50.7158 71.2217 52.1864 70.9369C63.7024 67.0697 72 56.12 72 43.2175C72 27.0838 59.0165 14 43.0005 14L42.9985 14.0098L42.9984 14.0099Z" fill="black"/>
</svg>
