<svg width="86" height="86" viewBox="0 0 86 86" fill="none" xmlns="http://www.w3.org/2000/svg">
<rect width="86" height="86" rx="14.6667" fill="white"/>
<path fill-rule="evenodd" clip-rule="evenodd" d="M65.0409 18L61.0247 62.9951L42.9705 68L24.9652 63.0033L20.9531 18H65.0409Z" fill="#E44D26"/>
<path fill-rule="evenodd" clip-rule="evenodd" d="M42.9922 64.1764L57.5837 60.1318L61.0138 21.6797H42.9922V64.1764Z" fill="#F16529"/>
<path fill-rule="evenodd" clip-rule="evenodd" d="M35.1906 32.7168H42.999V27.1992H29.1562L29.2865 28.6803L30.6414 43.8903H42.9909V38.3687H35.6951L35.1906 32.7168ZM36.4316 46.6491H30.8937L31.6668 55.3161L42.9746 58.4533L42.999 58.4451V52.7038L42.9746 52.7119L36.8263 51.0518L36.4316 46.6491Z" fill="#EBEBEB"/>
<path fill-rule="evenodd" clip-rule="evenodd" d="M42.9766 43.8905H49.7718L49.133 51.0479L42.9766 52.708V58.4494L54.2925 55.3122L54.3739 54.3804L55.6719 39.8499L55.8062 38.3688H42.9766V43.8905ZM42.9766 32.7048V32.717H56.3066L56.4165 31.4759L56.6688 28.6764L56.799 27.1953H42.9766V32.7048Z" fill="white"/>
</svg>
