<svg width="38" height="38" viewBox="0 0 38 38" fill="none" xmlns="http://www.w3.org/2000/svg">
<path d="M12.3904 18.5975C12.3844 15.1764 15.1533 12.3973 18.5737 12.3913C21.9948 12.3846 24.7745 15.1523 24.7811 18.574C24.7877 21.9958 22.0189 24.7742 18.5972 24.7809C15.1768 24.7874 12.3971 22.0192 12.3904 18.5975ZM9.04292 18.6042C9.05315 23.8752 13.3341 28.1388 18.6039 28.1284C23.8742 28.1183 28.1401 23.8385 28.1299 18.5674C28.1197 13.2982 23.8381 9.03217 18.5671 9.04248C13.2973 9.05272 9.03268 13.3343 9.04292 18.6042ZM26.2571 8.65101C26.2595 9.8819 27.2603 10.8786 28.4912 10.8762C29.7226 10.8737 30.7193 9.87348 30.7175 8.64259C30.7151 7.4117 29.7143 6.41444 28.4828 6.4169C27.2514 6.4193 26.2547 7.42012 26.2571 8.65101ZM11.1054 33.7277C9.29339 33.6489 8.30942 33.3477 7.65368 33.0954C6.78528 32.7594 6.16563 32.3566 5.51344 31.7092C4.86249 31.0594 4.45839 30.4415 4.11934 29.575C3.86465 28.9192 3.55813 27.9364 3.47318 26.1244C3.38105 24.1654 3.35999 23.5777 3.35099 18.615C3.34134 13.6535 3.35941 13.0657 3.44494 11.105C3.52255 9.29419 3.82552 8.30891 4.07723 7.65375C4.41323 6.7842 4.81494 6.1657 5.46349 5.51359C6.11321 4.86141 6.73105 4.45854 7.59821 4.11949C8.25344 3.86349 9.23618 3.55936 11.0476 3.47333C13.0077 3.38055 13.5948 3.36073 18.5563 3.35107C23.5189 3.34141 24.1066 3.35891 26.0674 3.44502C27.8781 3.52386 28.8633 3.82378 29.518 4.07731C30.3869 4.41331 31.0065 4.81385 31.6581 5.46357C32.3097 6.11336 32.7138 6.72996 33.0528 7.59901C33.3087 8.25235 33.6129 9.23633 33.6984 11.0472C33.7917 13.0073 33.8128 13.5951 33.8218 18.5565C33.8314 23.5192 33.8133 24.107 33.7273 26.0666C33.6484 27.8785 33.3479 28.8632 33.095 29.5196C32.7589 30.3874 32.3573 31.007 31.7081 31.6592C31.059 32.3089 30.4411 32.7142 29.5734 33.0533C28.9193 33.3086 27.9354 33.6133 26.1252 33.6994C24.1651 33.7915 23.5779 33.8127 18.6147 33.8217C13.6532 33.8313 13.0662 33.8127 11.1054 33.7277ZM10.8886 0.128705C8.911 0.222071 7.56031 0.538761 6.37995 1.00131C5.15813 1.47765 4.12239 2.11597 3.09209 3.15054C2.06049 4.1857 1.42697 5.22326 0.954255 6.44631C0.496645 7.62965 0.186489 8.98099 0.0991487 10.9598C0.0124619 12.9423 -0.00743105 13.5746 0.00222502 18.6216C0.0118811 23.668 0.0340973 24.3015 0.128625 26.2846C0.223153 28.2616 0.538754 29.6117 1.00123 30.7926C1.47815 32.0145 2.11589 33.0497 3.15105 34.0806C4.18562 35.1116 5.22383 35.7445 6.44747 36.2179C7.62957 36.6749 8.98142 36.9862 10.9597 37.0729C12.9421 37.1603 13.5749 37.1795 18.6207 37.1699C23.6689 37.1603 24.3018 37.138 26.2842 37.044C28.2618 36.9495 29.6113 36.6328 30.7928 36.1714C32.0146 35.6933 33.0504 35.0568 34.0808 34.0216C35.1111 32.987 35.7446 31.9488 36.2173 30.7252C36.675 29.5431 36.9863 28.1911 37.0724 26.2141C37.1591 24.2304 37.1797 23.5969 37.1699 18.5505C37.1603 13.5035 37.1375 12.8712 37.0435 10.8894C36.9496 8.91056 36.6328 7.56104 36.1709 6.37951C35.6934 5.1577 35.0564 4.12305 34.0218 3.09152C32.9872 2.06115 31.949 1.42639 30.7254 0.954915C29.5427 0.497233 28.1913 0.185335 26.2131 0.0998095C24.2307 0.0118886 23.5978 -0.00735094 18.5502 0.00223252C13.5039 0.0118886 12.871 0.033524 10.8886 0.128705Z" fill="white"/>
</svg>
