<svg width="38" height="38" viewBox="0 0 38 38" fill="none" xmlns="http://www.w3.org/2000/svg">
<path fill-rule="evenodd" clip-rule="evenodd" d="M12.7488 11.8172H20.3549V15.7498H20.4627C21.5255 13.8425 24.1115 11.8172 27.9758 11.8172C36.0032 11.8172 37.4872 16.8312 37.4872 23.3543V37.1476H29.5578V24.8879C29.5578 22.0811 29.499 18.4681 25.4339 18.4681C21.3688 18.4681 20.6733 21.5207 20.6733 24.6864V37.1722H12.7488V11.8172ZM8.24777 4.13898C8.24777 4.95759 8.00591 5.75782 7.55277 6.43847C7.09963 7.11912 6.45557 7.64963 5.70203 7.9629C4.94848 8.27617 4.11931 8.35813 3.31936 8.19843C2.5194 8.03873 1.78459 7.64453 1.20786 7.06568C0.631124 6.48683 0.238362 5.74934 0.0792413 4.94645C-0.0798797 4.14357 0.00178633 3.31136 0.313913 2.55506C0.62604 1.79876 1.15461 1.15234 1.83278 0.697544C2.51095 0.242747 3.30826 0 4.12388 0C5.21721 0.00130092 6.26538 0.437788 7.03848 1.21372C7.81158 1.98964 8.24647 3.04165 8.24777 4.13898ZM0.00979721 11.8172H8.24777V37.1476H0.00979721V11.8172Z" fill="white"/>
</svg>
