<svg width="40" height="34" viewBox="0 0 40 34" fill="none" xmlns="http://www.w3.org/2000/svg">
<path d="M38.1197 32.8134H38.4959L37.775 31.7229C38.2158 31.7229 38.4495 31.4428 38.4528 31.0997C38.4528 31.0865 38.4528 31.0716 38.4512 31.0583C38.4512 30.5909 38.1694 30.3672 37.591 30.3672H36.6562V32.8134H37.0076V31.7478H37.4402L38.1197 32.8134ZM37.4153 31.471H37.0076V30.644H37.5247C37.7915 30.644 38.0965 30.6871 38.0965 31.0368C38.0965 31.4378 37.7899 31.471 37.4153 31.471Z" fill="white"/>
<path d="M28.6571 28.6573H23.6735V20.8529C23.6735 18.9917 23.6403 16.5968 21.0814 16.5968C18.486 16.5968 18.0882 18.6238 18.0882 20.7186V28.6573H13.1063V12.6076H17.891V14.8003H17.9573C18.9335 13.133 20.7466 12.1369 22.6774 12.2082C27.729 12.2082 28.6587 15.5312 28.6587 19.8519L28.6571 28.6573ZM7.48289 10.4133C5.88522 10.4133 4.59083 9.11892 4.59083 7.52124C4.59083 5.92356 5.88522 4.62918 7.48289 4.62918C9.08057 4.62918 10.375 5.92356 10.375 7.52124C10.375 9.11892 9.08057 10.4133 7.48289 10.4133ZM9.97388 28.6573H4.98528V12.6076H9.97388V28.6573ZM31.1414 0.00188372H2.48104C1.12699 -0.0130323 0.0165734 1.07253 0 2.42657V31.2046C0.0165734 32.5603 1.12699 33.6459 2.48104 33.631H31.1414C32.4988 33.6476 33.6142 32.562 33.6324 31.2046V2.42492C33.6125 1.06755 32.4971 -0.0180044 31.1414 0.000226302" fill="white"/>
<path d="M37.4582 29.2812C36.192 29.2929 35.1744 30.3303 35.1876 31.5966C35.1992 32.8628 36.2367 33.8804 37.5029 33.8671C38.7691 33.8555 39.7867 32.818 39.7735 31.5518C39.7619 30.3022 38.7509 29.2929 37.5029 29.2812H37.4582ZM37.5112 33.6036C36.4008 33.6218 35.4329 32.7385 35.4147 31.628C35.3965 30.5176 36.2815 29.6028 37.3919 29.5845C38.5023 29.5663 39.4172 30.4513 39.4354 31.5618C39.4354 31.5734 39.4354 31.5833 39.4354 31.5949C39.4586 32.6805 38.5968 33.5804 37.5112 33.6036H37.4598H37.5112Z" fill="white"/>
</svg>
