<svg width="88" height="86" viewBox="0 0 88 86" fill="none" xmlns="http://www.w3.org/2000/svg">
<g clip-path="url(#clip0_2693_95)">
<path d="M72.4174 0H15.5826C6.97658 0 0 6.99278 0 15.6188V70.3812C0 79.0072 6.97658 86 15.5826 86H72.4174C81.0234 86 88 79.0072 88 70.3812V15.6188C88 6.99278 81.0234 0 72.4174 0Z" fill="#001E36"/>
<path d="M19.8125 60.3087V22.4974C19.8125 22.2234 19.9294 22.0838 20.1667 22.0838C20.7944 22.0838 21.3704 22.0838 22.2302 22.0545C23.09 22.0252 24.0306 22.0148 25.0348 21.9959L28.2228 21.9356C29.344 21.916 30.4554 21.9062 31.5571 21.9062C34.5479 21.9062 37.07 22.2808 39.1231 23.03C40.9689 23.6571 42.6523 24.688 44.0514 26.0479C45.2377 27.2274 46.1542 28.6511 46.7373 30.2207C47.289 31.749 47.5678 33.3627 47.561 34.988C47.561 38.1455 46.833 40.7493 45.3771 42.7991C43.911 44.8578 41.8508 46.4169 39.4739 47.2666C36.9943 48.1938 34.2379 48.5075 31.208 48.5075C30.3482 48.5075 29.7326 48.4989 29.3784 48.4782C29.0242 48.4575 28.4928 48.4489 27.7844 48.4489V60.2535C27.7933 60.3148 27.7901 60.3772 27.7749 60.4372C27.7597 60.4972 27.7327 60.5536 27.6956 60.6032C27.6585 60.6527 27.612 60.6943 27.5588 60.7257C27.5055 60.7571 27.4466 60.7777 27.3854 60.7861C27.3416 60.793 27.2969 60.793 27.253 60.7861H20.2252C19.9432 60.7809 19.8125 60.6241 19.8125 60.3087ZM27.7844 29.1848V41.5168C28.2956 41.557 28.7679 41.5766 29.2013 41.5754H31.1495C32.5831 41.5705 34.0072 41.3426 35.371 40.8998C36.5401 40.5531 37.5852 39.8771 38.382 38.9522C39.1489 38.0456 39.5324 36.7816 39.5324 35.1604C39.5621 34.0156 39.2637 32.8862 38.6726 31.9063C38.053 30.9584 37.1572 30.2248 36.107 29.8053C34.738 29.2724 33.2761 29.0209 31.8081 29.0659C30.8624 29.0659 30.0261 29.0756 29.2993 29.0952C28.5725 29.1147 28.0704 29.1446 27.793 29.1848H27.7844Z" fill="#31A8FF"/>
<path d="M70.3888 39.2727C69.2795 38.7007 68.0976 38.2826 66.8758 38.03C65.5299 37.72 64.1538 37.561 62.7729 37.556C62.0262 37.536 61.2805 37.626 60.5599 37.8232C60.1006 37.9251 59.6923 38.1871 59.4077 38.5626C59.2154 38.8629 59.1133 39.2123 59.1137 39.5691C59.1241 39.9151 59.2487 40.2479 59.4679 40.5154C59.8125 40.9198 60.234 41.2514 60.7077 41.4909C61.5489 41.9437 62.4159 42.3465 63.3043 42.6974C65.2856 43.3625 67.1789 44.2666 68.9427 45.3896C70.1431 46.1503 71.1368 47.1972 71.835 48.4368C72.4234 49.6124 72.7184 50.9136 72.6948 52.2286C72.7296 53.9629 72.2353 55.6664 71.2778 57.1114C70.2522 58.5771 68.8281 59.7168 67.175 60.3948C65.3798 61.1853 63.1638 61.5806 60.5272 61.5806C58.853 61.5962 57.1818 61.4374 55.5405 61.1066C54.2469 60.8689 52.9877 60.4711 51.7918 59.9225C51.6625 59.856 51.5547 59.7538 51.4813 59.628C51.4079 59.5023 51.3719 59.3581 51.3774 59.2124V52.8232C51.37 52.7606 51.3798 52.6971 51.4059 52.6396C51.432 52.5822 51.4733 52.533 51.5253 52.4975C51.576 52.4685 51.6343 52.4558 51.6924 52.461C51.7505 52.4662 51.8056 52.4892 51.8503 52.5268C53.2639 53.3621 54.7991 53.971 56.4002 54.3313C57.8105 54.6861 59.2573 54.8747 60.7112 54.8932C62.0868 54.8932 63.1002 54.7157 63.7513 54.3606C64.0445 54.2261 64.2924 54.0092 64.4651 53.7364C64.6378 53.4635 64.728 53.1464 64.7246 52.8232C64.7246 52.3096 64.4294 51.8161 63.839 51.3427C63.2487 50.8693 62.0473 50.3005 60.2349 49.6364C58.3813 48.9899 56.6239 48.0941 55.0108 46.9735C53.8572 46.1703 52.9068 45.1079 52.2355 43.8711C51.6537 42.7055 51.3588 41.4171 51.3757 40.1138C51.3706 38.5438 51.8004 37.0032 52.6172 35.6636C53.5452 34.1917 54.8781 33.0203 56.4553 32.2906C58.1863 31.4231 60.3506 30.9893 62.9483 30.9893C64.47 30.9765 65.9903 31.0848 67.4948 31.3133C68.5839 31.4537 69.6486 31.7437 70.6588 32.1751C70.739 32.1982 70.8127 32.2396 70.8742 32.2961C70.9357 32.3527 70.9832 32.4228 71.013 32.5009C71.053 32.645 71.0727 32.7941 71.0715 32.9438V38.9211C71.0763 38.9902 71.0629 39.0593 71.0327 39.1216C71.0026 39.1839 70.9566 39.2372 70.8995 39.2761C70.82 39.3152 70.7324 39.3352 70.6438 39.3346C70.5552 39.334 70.4679 39.3128 70.3888 39.2727Z" fill="#31A8FF"/>
</g>
<defs>
<clipPath id="clip0_2693_95">
<rect width="88" height="86" fill="white"/>
</clipPath>
</defs>
</svg>
