<svg width="86" height="86" viewBox="0 0 86 86" fill="none" xmlns="http://www.w3.org/2000/svg">
<rect width="86" height="86" rx="14.6667" fill="#F26307"/>
<path d="M43.167 63.7861C43.167 65.0089 42.1759 66.0008 40.9531 66.001H26.2139C24.991 66.0009 24 65.009 24 63.7861V52.8809C24.0002 51.6581 24.9911 50.667 26.2139 50.667H43.167V63.7861ZM60.1201 35.333C61.3429 35.3331 62.3338 36.3242 62.334 37.5469V48.4521C62.334 49.675 61.343 50.6669 60.1201 50.667H43.167V35.333H60.1201ZM40.9531 20C42.1759 20.0002 43.167 20.992 43.167 22.2148V35.334H26.2139C24.991 35.3339 24 34.343 24 33.1201V22.2148C24 20.992 24.991 20.0001 26.2139 20H40.9531Z" fill="#D9D9D9"/>
</svg>
