<svg width="86" height="86" viewBox="0 0 86 86" fill="none" xmlns="http://www.w3.org/2000/svg">
<rect width="86" height="86" rx="14.6667" fill="white"/>
<g clip-path="url(#clip0_2755_1302)">
<mask id="mask0_2755_1302" style="mask-type:luminance" maskUnits="userSpaceOnUse" x="18" y="18" width="50" height="50">
<path fill-rule="evenodd" clip-rule="evenodd" d="M53.4548 67.6575C54.2419 67.9641 55.1404 67.9446 55.9353 67.5618L66.2302 62.6087C67.3123 62.0891 67.9998 60.9934 67.9998 59.7923V26.2063C67.9998 25.0051 67.3123 23.9114 66.2302 23.3899L55.9353 18.4368C54.8923 17.9348 53.6716 18.0579 52.7556 18.7239C52.6248 18.8196 52.4998 18.9251 52.3826 19.0423L32.6775 37.0208L24.0935 30.5032C23.2947 29.8958 22.1775 29.9466 21.4353 30.6223L18.6814 33.1262C17.7732 33.9524 17.7732 35.3801 18.6794 36.2063L26.1228 42.9993L18.6794 49.7903C17.7732 50.6184 17.7732 52.0462 18.6814 52.8723L21.4353 55.3762C22.1775 56.052 23.2947 56.1008 24.0935 55.4954L32.6775 48.9798L52.3845 66.9583C52.697 67.2688 53.0623 67.5051 53.4548 67.6575ZM55.5076 31.6497L40.5544 42.9993L55.5076 54.3508V31.6497Z" fill="white"/>
</mask>
<g mask="url(#mask0_2755_1302)">
<path d="M66.2302 23.3983L55.9275 18.4374C54.7361 17.8632 53.3103 18.1054 52.3748 19.0409L18.6482 49.7909C17.7419 50.619 17.7419 52.0468 18.6501 52.8729L21.4041 55.3768C22.1462 56.0526 23.2654 56.1015 24.0642 55.496L64.6794 24.6854C66.0427 23.6522 67.9998 24.6229 67.9998 26.3339V26.2147C67.9998 25.0136 67.3123 23.9179 66.2302 23.3983Z" fill="#0065A9"/>
<path d="M66.2302 62.6007L55.9275 67.5616C54.7361 68.1359 53.3103 67.8937 52.3748 66.9581L18.6482 36.2081C17.7419 35.3819 17.7419 33.9523 18.6501 33.128L21.4041 30.6241C22.1462 29.9484 23.2654 29.8995 24.0642 30.505L64.6794 61.3136C66.0427 62.3468 67.9998 61.3761 67.9998 59.6652V59.7843C67.9998 60.9855 67.3123 62.0812 66.2302 62.6007Z" fill="#007ACC"/>
<path d="M55.9297 67.5629C54.7363 68.1371 53.3125 67.8949 52.375 66.9574C53.5273 68.1098 55.5 67.2934 55.5 65.6625V20.3363C55.5 18.7055 53.5273 17.8891 52.375 19.0414C53.3105 18.1059 54.7363 17.8637 55.9297 18.4359L66.2305 23.3891C67.3125 23.9106 68.002 25.0043 68.002 26.2055V59.7934C68.002 60.9945 67.3145 62.0883 66.2305 62.6098L55.9297 67.5629Z" fill="#1F9CF0"/>
<g opacity="0.25">
<path fill-rule="evenodd" clip-rule="evenodd" d="M53.4255 67.6575C54.2126 67.9641 55.1111 67.9446 55.906 67.5618L66.2009 62.6087C67.283 62.0891 67.9705 60.9934 67.9705 59.7923V26.2063C67.9705 25.0051 67.283 23.9114 66.2009 23.3899L55.906 18.4368C54.863 17.9348 53.6423 18.0579 52.7263 18.7239C52.5955 18.8196 52.4705 18.9251 52.3533 19.0423L32.6462 37.0208L24.0623 30.5032C23.2634 29.8958 22.1462 29.9466 21.4041 30.6223L18.6501 33.1262C17.7419 33.9524 17.7419 35.3801 18.6482 36.2083L26.0935 42.9993L18.6482 49.7903C17.7419 50.6184 17.7419 52.0462 18.6501 52.8723L21.4041 55.3762C22.1462 56.052 23.2634 56.1008 24.0623 55.4954L32.6462 48.9798L52.3533 66.9583C52.6658 67.2688 53.031 67.5051 53.4255 67.6575ZM55.4763 31.6497L40.5232 42.9993L55.4763 54.3508V31.6497Z" fill="url(#paint0_linear_2755_1302)"/>
</g>
</g>
</g>
<defs>
<linearGradient id="paint0_linear_2755_1302" x1="42.9693" y1="18.1282" x2="42.9693" y2="67.8704" gradientUnits="userSpaceOnUse">
<stop stop-color="white"/>
<stop offset="1" stop-color="white" stop-opacity="0"/>
</linearGradient>
<clipPath id="clip0_2755_1302">
<rect width="50" height="50" fill="white" transform="translate(18 18)"/>
</clipPath>
</defs>
</svg>
